<svg xmlns="http://www.w3.org/2000/svg" xmlns:xlink="http://www.w3.org/1999/xlink" width="70" height="92" viewBox="0 0 70 92"><defs><path id="rq9ka" d="M959.025 5343.965a36.455 36.455 0 0 1-4.023-.314c-4.648-.623-9.033-2.108-13.032-4.413a34.275 34.275 0 0 1-9.923-8.596 33.018 33.018 0 0 1-5.862-11.566 32.282 32.282 0 0 1-.85-13.316 32.627 32.627 0 0 1 4.923-13.155c2.5-3.873 5.74-7.167 9.63-9.789 1.424-.96 3.385-.623 4.378.754.994 1.376.645 3.27-.78 4.23-6.49 4.375-10.834 11.225-11.92 18.794-2.157 15.03 8.744 28.953 24.3 31.037 15.555 2.083 29.965-8.45 32.121-23.48.945-6.585-.605-13.27-4.366-18.828L957.06 5261.4a12.789 12.789 0 0 0-1.853 5.044 12.796 12.796 0 0 0 1.885 8.703l19.306 24.658.144.217a18.693 18.693 0 0 1 .328 20.196 19.397 19.397 0 0 1-5.09 5.486 20.12 20.12 0 0 1-6.849 3.24 20.439 20.439 0 0 1-7.887.47c-5.254-.703-9.781-3.373-12.747-7.518-2.857-3.993-4.028-9.001-3.296-14.103.239-1.662 1.827-2.823 3.547-2.593 1.721.23 2.922 1.765 2.683 3.427-1.07 7.46 3.52 13.81 10.677 14.768.524.07 1.046.11 1.563.122 6.81.153 12.825-4.665 13.783-11.339.444-3.096-.27-6.25-2.008-8.879l-.009-.012-19.328-24.687-.072-.11a18.72 18.72 0 0 1-.794-19.14 19.239 19.239 0 0 1 3.96-5.06l2.493-2.278 2.215 2.7 29.017 37.06.135.192a32.898 32.898 0 0 1 4.796 10.829 32.345 32.345 0 0 1 .559 12.193 32.66 32.66 0 0 1-4.567 12.592c-2.303 3.73-5.296 6.956-8.897 9.588a35.16 35.16 0 0 1-11.97 5.664 35.574 35.574 0 0 1-9.759 1.135z"/></defs><g><g transform="translate(-925 -5252)"><use fill="#fff" xlink:href="#rq9ka"/></g></g></svg>