<svg xmlns="http://www.w3.org/2000/svg" xmlns:xlink="http://www.w3.org/1999/xlink" width="43" height="57" viewBox="0 0 43 57"><defs><path id="x0d2a" d="M36.824 76.279a22.307 22.307 0 0 1-2.462-.193 21.643 21.643 0 0 1-7.976-2.7 20.98 20.98 0 0 1-6.073-5.261 20.215 20.215 0 0 1-3.588-7.079 19.76 19.76 0 0 1-.52-8.15 19.966 19.966 0 0 1 3.013-8.051 20.802 20.802 0 0 1 5.893-5.992c.872-.587 2.072-.38 2.68.462a1.82 1.82 0 0 1-.477 2.589c-3.972 2.677-6.631 6.87-7.296 11.503-1.32 9.198 5.352 17.72 14.873 18.995 9.52 1.275 18.34-5.171 19.66-14.37.578-4.03-.371-8.123-2.673-11.524L35.62 25.746a7.83 7.83 0 0 0-1.134 3.087 7.832 7.832 0 0 0 1.154 5.327L47.457 49.25l.088.133a11.447 11.447 0 0 1 .201 12.36 11.867 11.867 0 0 1-3.115 3.359 12.312 12.312 0 0 1-4.192 1.983c-1.575.409-3.2.506-4.827.288-3.216-.431-5.987-2.065-7.802-4.602-1.748-2.444-2.465-5.51-2.017-8.632.146-1.017 1.118-1.728 2.171-1.587 1.053.141 1.788 1.08 1.642 2.098-.655 4.566 2.154 8.451 6.535 9.038.32.043.64.068.956.075 4.169.094 7.85-2.855 8.436-6.94a7.83 7.83 0 0 0-1.23-5.434l-.004-.008-11.83-15.109-.044-.067a11.456 11.456 0 0 1-.486-11.715 11.78 11.78 0 0 1 2.424-3.096L35.888 20l1.356 1.653 17.76 22.682.082.117a20.135 20.135 0 0 1 2.936 6.628c.586 2.445.701 4.956.341 7.463a19.987 19.987 0 0 1-2.794 7.706 20.75 20.75 0 0 1-5.446 5.868 21.52 21.52 0 0 1-7.326 3.467c-1.957.508-3.957.74-5.973.695z"/><radialGradient id="x0d2b" cx="41.41" cy="97.75" r="91.26" gradientUnits="userSpaceOnUse"><stop offset="0" stop-color="#af004f"/><stop offset=".02" stop-color="#af004f"/><stop offset=".07" stop-color="#b3034e"/><stop offset=".15" stop-color="#c10e4c"/><stop offset=".23" stop-color="#d82149"/><stop offset=".31" stop-color="#f83a45"/><stop offset=".33" stop-color="#ff4045"/><stop offset=".44" stop-color="#ff4443"/><stop offset=".57" stop-color="#ff533e"/><stop offset=".71" stop-color="#ff6b36"/><stop offset=".86" stop-color="#ff8c2b"/><stop offset="1" stop-color="#ffb41e"/></radialGradient></defs><g><g transform="translate(-16 -20)"><use fill="url(#x0d2b)" xlink:href="#x0d2a"/></g></g></svg>