<svg xmlns="http://www.w3.org/2000/svg" xmlns:xlink="http://www.w3.org/1999/xlink" width="201" height="88" viewBox="0 0 201 88"><defs><path id="38mla" d="M67.616 115.977a34.864 34.864 0 0 1-3.849-.301c-4.447-.596-8.642-2.016-12.468-4.222a32.795 32.795 0 0 1-9.494-8.225 31.598 31.598 0 0 1-5.609-11.065 30.893 30.893 0 0 1-.812-12.74 31.217 31.217 0 0 1 4.709-12.586c2.392-3.706 5.492-6.857 9.213-9.366 1.363-.919 3.24-.596 4.19.721.95 1.317.617 3.13-.746 4.048-6.21 4.185-10.366 10.74-11.405 17.981-2.064 14.38 8.365 27.7 23.249 29.694 14.882 1.993 28.669-8.084 30.732-22.463.904-6.302-.58-12.698-4.177-18.015L65.736 36.982a12.236 12.236 0 0 0-1.773 4.826 12.243 12.243 0 0 0 1.804 8.327l18.471 23.592.138.207a17.897 17.897 0 0 1 2.815 12.429 17.878 17.878 0 0 1-2.501 6.894 18.553 18.553 0 0 1-4.87 5.248 19.249 19.249 0 0 1-6.553 3.1c-2.463.64-5.001.792-7.546.45-5.027-.673-9.358-3.228-12.196-7.193-2.733-3.82-3.853-8.612-3.153-13.493.228-1.59 1.748-2.701 3.394-2.48 1.646.22 2.795 1.688 2.567 3.278-1.024 7.138 3.367 13.212 10.215 14.13.5.066 1 .105 1.495.116 6.516.146 12.27-4.463 13.187-10.849a12.24 12.24 0 0 0-1.922-8.495l-.007-.012L60.808 53.44l-.069-.106a17.908 17.908 0 0 1-.76-18.312 18.413 18.413 0 0 1 3.79-4.84L66.153 28l2.119 2.583 27.762 35.458.129.183a31.48 31.48 0 0 1 4.589 10.36 30.947 30.947 0 0 1 .534 11.667 31.247 31.247 0 0 1-4.369 12.047c-2.204 3.57-5.068 6.656-8.512 9.173a33.64 33.64 0 0 1-11.453 5.42 34.036 34.036 0 0 1-9.337 1.086z"/><path id="38mlc" d="M134.13 62.57c-.773-.28-1.37-.65-1.792-1.111l.47-.96c.41.426.957.772 1.639 1.035a5.791 5.791 0 0 0 2.109.396c1.016 0 1.778-.193 2.287-.58.508-.388.763-.89.763-1.508 0-.472-.139-.848-.414-1.128a2.78 2.78 0 0 0-1.014-.649c-.4-.151-.957-.317-1.671-.497-.855-.224-1.536-.44-2.044-.648a3.359 3.359 0 0 1-1.306-.952c-.363-.426-.544-1.005-.544-1.734 0-.596.152-1.137.455-1.626.302-.488.767-.878 1.395-1.17.627-.292 1.406-.438 2.336-.438.649 0 1.284.093 1.906.278.622.185 1.16.44 1.615.766l-.406.994a5.501 5.501 0 0 0-1.525-.733 5.51 5.51 0 0 0-1.59-.244c-.995 0-1.744.2-2.247.598-.503.399-.754.912-.754 1.54 0 .472.138.851.413 1.138.276.286.622.505 1.038.656.416.152.976.318 1.68.497.833.214 1.506.424 2.02.632.513.208.949.522 1.305.943.357.421.536.991.536 1.71 0 .595-.154 1.136-.462 1.625-.309.488-.782.876-1.42 1.162-.638.286-1.423.43-2.352.43-.844 0-1.653-.141-2.426-.422z"/><path id="38mld" d="M155.196 51.101v11.79h-1.152v-9.432l-4.461 7.932h-.568l-4.461-7.881v9.38h-1.152V51.101h.99l4.931 8.74 4.883-8.74z"/><path id="38mle" d="M165.58 58.73l-2.726-6.332-2.726 6.332zm.437 1.01h-6.327l-1.363 3.15h-1.249l5.192-11.789h1.184l5.192 11.79h-1.266z"/><path id="38mlf" d="M177.325 57.316c.595-.517.892-1.24.892-2.173 0-.954-.297-1.687-.892-2.198-.595-.51-1.455-.766-2.58-.766h-3.017v5.911h3.018c1.124 0 1.984-.258 2.579-.774zm.957 5.574l-2.596-3.789c-.292.034-.594.05-.908.05h-3.05v3.74h-1.2V51.1h4.25c1.45 0 2.585.36 3.407 1.078.822.719 1.233 1.707 1.233 2.964 0 .92-.225 1.699-.673 2.333-.45.634-1.09 1.092-1.923 1.372l2.774 4.042z"/><path id="38mlg" d="M184.3 52.18h-3.99V51.1h9.183v1.078h-3.991V62.89H184.3z"/><path id="38mlh" d="M140.021 84.12l-2.843 3.077v5.557h-4.869V70.777h4.87v10.267l9.375-10.267h5.443l-8.77 9.796 9.284 12.181h-5.715z"/><path id="38mli" d="M166.151 84.183l-3.357-8.414-3.357 8.414zm1.543 3.862h-9.83l-1.875 4.71h-5.02l9.436-21.978h4.84l9.465 21.977h-5.141z"/><path id="38mlj" d="M196.183 92.754l-.03-13.186-6.23 10.863h-2.208l-6.2-10.58v12.903h-4.597V70.777h4.053l7.923 13.657 7.803-13.657h4.022l.06 21.977z"/><path id="38mlk" d="M205.8 70.777h4.9v21.977h-4.9z"/><path id="38mll" d="M235.136 70.777v21.977h-4.023l-10.555-13.343v13.343h-4.839V70.777h4.053l10.525 13.343V70.777z"/><radialGradient id="38mlb" cx="74.78" cy="149.55" r="142.66" gradientUnits="userSpaceOnUse"><stop offset="0" stop-color="#af004f"/><stop offset=".02" stop-color="#af004f"/><stop offset=".07" stop-color="#b3034e"/><stop offset=".15" stop-color="#c10e4c"/><stop offset=".23" stop-color="#d82149"/><stop offset=".31" stop-color="#f83a45"/><stop offset=".33" stop-color="#ff4045"/><stop offset=".44" stop-color="#ff4443"/><stop offset=".57" stop-color="#ff533e"/><stop offset=".71" stop-color="#ff6b36"/><stop offset=".86" stop-color="#ff8c2b"/><stop offset="1" stop-color="#ffb41e"/></radialGradient></defs><g><g transform="translate(-35 -28)"><g><g><use fill="url(#38mlb)" xlink:href="#38mla"/></g></g><g><g><g><use fill="#ff6738" xlink:href="#38mlc"/></g><g><use fill="#ff6738" xlink:href="#38mld"/></g><g><use fill="#ff6738" xlink:href="#38mle"/></g><g><use fill="#ff6738" xlink:href="#38mlf"/></g><g><use fill="#ff6738" xlink:href="#38mlg"/></g></g><g><g><use fill="#ff6738" xlink:href="#38mlh"/></g><g><use fill="#ff6738" xlink:href="#38mli"/></g><g><use fill="#ff6738" xlink:href="#38mlj"/></g><g><use fill="#ff6738" xlink:href="#38mlk"/></g><g><use fill="#ff6738" xlink:href="#38mll"/></g></g></g></g></g></svg>