<svg xmlns="http://www.w3.org/2000/svg" xmlns:xlink="http://www.w3.org/1999/xlink" width="12" height="23" viewBox="0 0 12 23"><defs><path id="p46ua" d="M809.515 5437.443l-2.87-.005c-3.224 0-5.308 2.138-5.308 5.447v2.512h-2.886a.451.451 0 0 0-.451.451v3.639c0 .25.202.451.451.451h2.886v9.182c0 .25.202.451.451.451h3.765c.25 0 .452-.202.452-.45v-9.183h3.374c.25 0 .451-.202.451-.451l.002-3.639a.452.452 0 0 0-.452-.451h-3.375v-2.13c0-1.023.244-1.542 1.577-1.542h1.933c.25 0 .451-.203.451-.452v-3.379a.451.451 0 0 0-.45-.451z"/></defs><g><g transform="translate(-798 -5437)"><use fill="#fff" xlink:href="#p46ua"/></g></g></svg>