<svg xmlns="http://www.w3.org/2000/svg" xmlns:xlink="http://www.w3.org/1999/xlink" width="23" height="23" viewBox="0 0 23 23"><defs><path id="mheia" d="M755.806 5447.79a3.744 3.744 0 0 0-3.74-3.74 3.744 3.744 0 0 0-3.739 3.74 3.744 3.744 0 0 0 3.74 3.738 3.743 3.743 0 0 0 3.739-3.739zm2.202-7.369a1.442 1.442 0 0 1 1.019 2.458 1.45 1.45 0 0 1-1.019.422 1.445 1.445 0 0 1-1.44-1.44 1.44 1.44 0 0 1 1.44-1.44zm-.238 7.368a5.709 5.709 0 0 1-5.703 5.703 5.71 5.71 0 0 1-5.704-5.703 5.71 5.71 0 0 1 5.704-5.702 5.709 5.709 0 0 1 5.703 5.702zm-.746 11.067c3.37 0 6.11-2.74 6.11-6.108v-9.918a6.115 6.115 0 0 0-6.11-6.108h-9.916a6.115 6.115 0 0 0-6.108 6.108v9.918a6.115 6.115 0 0 0 6.108 6.108z"/></defs><g><g transform="translate(-741 -5436)"><use fill="#fff" xlink:href="#mheia"/></g></g></svg>