<svg xmlns="http://www.w3.org/2000/svg" xmlns:xlink="http://www.w3.org/1999/xlink" width="27" height="24" viewBox="0 0 27 24"><defs><path id="1q14a" d="M1106.76 5447.64c2.348.557 5.895 1.4 5.895 5.308 0 1.924-.948 3.393-2.669 4.134-1.228.529-2.618.6-3.816.6-3.681 0-6.006-2.862-6.103-2.984a1.75 1.75 0 0 1 2.738-2.183c.005.006 1.396 1.603 3.365 1.665 2.371.076 2.913-.63 2.983-1.232.086-.736-.569-1.276-3.202-1.902-2.233-.531-5.607-1.333-5.607-4.932 0-1.12.456-4.776 6.32-4.776 3.703 0 5.889 2.915 5.98 3.04a1.75 1.75 0 0 1-2.813 2.085c-.042-.053-1.293-1.445-3.167-1.623-1.418-.135-2.818.376-2.818 1.132 0 .8.402 1.07 2.915 1.667zm11.834 4.12c-.423-.585-.62-1.3-.618-2.021v-.013c0-6.429-5.212-11.64-11.641-11.64-1.407 0-2.754.25-4.002.707a3.432 3.432 0 0 1-2.107.1 5.699 5.699 0 0 0-1.941-.198c-2.842.195-5.13 2.525-5.277 5.37a5.66 5.66 0 0 0 1.068 3.627c.423.585.619 1.3.618 2.021v.013c0 6.43 5.212 11.64 11.64 11.64 1.407 0 2.755-.25 4.003-.707a3.432 3.432 0 0 1 2.106-.1 5.699 5.699 0 0 0 1.942.198c2.842-.195 5.13-2.524 5.277-5.37a5.66 5.66 0 0 0-1.068-3.627z"/></defs><g><g transform="translate(-1093 -5438)"><use fill="#fff" xlink:href="#1q14a"/></g></g></svg>