<svg xmlns="http://www.w3.org/2000/svg" xmlns:xlink="http://www.w3.org/1999/xlink" width="27" height="24" viewBox="0 0 27 24"><defs><path id="6jkaa" d="M1040.481 5450.52l11.828-7.285c.213-.13.431.157.249.326l-9.762 9.074c-.343.32-.564.747-.627 1.21l-.332 2.465c-.044.33-.507.362-.597.043l-1.28-4.493a1.19 1.19 0 0 1 .521-1.34zm-8.017-1.056l6.052 2.258 2.343 7.534c.15.482.74.66 1.131.34l3.374-2.75a1.006 1.006 0 0 1 1.227-.034l6.084 4.418a.713.713 0 0 0 1.118-.431l4.457-21.441a.713.713 0 0 0-.955-.81l-24.838 9.581c-.613.236-.608 1.104.007 1.335z"/></defs><g><g transform="translate(-1032 -5438)"><use fill="#fff" xlink:href="#6jkaa"/></g></g></svg>