<svg xmlns="http://www.w3.org/2000/svg" xmlns:xlink="http://www.w3.org/1999/xlink" width="30" height="25" viewBox="0 0 30 25"><defs><path id="nbo3a" d="M937.828 5439.835a11.6 11.6 0 0 1-2.02.68 6.298 6.298 0 0 0 1.662-2.647.33.33 0 0 0-.483-.384 11.655 11.655 0 0 1-3.088 1.275.818.818 0 0 1-.734-.182 6.315 6.315 0 0 0-4.178-1.577c-.667 0-1.34.104-2 .309a6.119 6.119 0 0 0-4.124 4.408 6.737 6.737 0 0 0-.15 2.326.234.234 0 0 1-.254.255c-4.482-.417-8.524-2.576-11.382-6.081a.33.33 0 0 0-.54.042 6.31 6.31 0 0 0-.856 3.175c0 1.712.688 3.326 1.883 4.502a5.66 5.66 0 0 1-1.44-.558.33.33 0 0 0-.491.285 6.323 6.323 0 0 0 3.688 5.826 5.661 5.661 0 0 1-1.199-.1.33.33 0 0 0-.376.425 6.33 6.33 0 0 0 5 4.305 11.654 11.654 0 0 1-6.528 1.982h-.73a.484.484 0 0 0-.473.364.5.5 0 0 0 .24.553 17.334 17.334 0 0 0 8.71 2.349c2.677 0 5.181-.532 7.443-1.58a16.437 16.437 0 0 0 5.446-4.08 17.892 17.892 0 0 0 3.335-5.586c.742-1.98 1.134-4.094 1.134-6.112v-.096c0-.325.146-.63.402-.837a12.483 12.483 0 0 0 2.511-2.756c.184-.275-.106-.62-.408-.485z"/></defs><g><g transform="translate(-909 -5437)"><use fill="#fff" xlink:href="#nbo3a"/></g></g></svg>