<svg xmlns="http://www.w3.org/2000/svg" xmlns:xlink="http://www.w3.org/1999/xlink" width="24" height="26" viewBox="0 0 24 26"><defs><path id="vtjya" d="M994.14 5452.004c-.383 1.51-2.344 3.389-3.902 3.736-2.04.388-4.095.554-6.148.497a.146.146 0 0 0-.11.044l-1.911 1.963-2.034 2.087a.238.238 0 0 1-.41-.164v-4.282c0-.071-.05-.131-.12-.145h-.001c-1.558-.347-3.518-2.225-3.901-3.736a20.533 20.533 0 0 1 0-8.809c.383-1.51 2.343-3.389 3.9-3.736a28.603 28.603 0 0 1 10.735 0c1.559.347 3.519 2.225 3.901 3.736a20.51 20.51 0 0 1 0 8.81zm2.072-9.278l-.007-.028c-.573-2.316-3.156-4.8-5.527-5.317l-.027-.006a30.71 30.71 0 0 0-11.56 0l-.027.006c-2.37.517-4.953 3.001-5.527 5.317l-.006.028a22.626 22.626 0 0 0 0 9.747l.006.028c.55 2.217 2.94 4.588 5.222 5.24v2.585c0 .935 1.14 1.395 1.789.72l2.619-2.723c.568.032 1.136.05 1.704.05 1.931 0 3.863-.183 5.78-.549l.027-.005c2.371-.517 4.954-3.002 5.527-5.318l.007-.028a22.626 22.626 0 0 0 0-9.747z"/><path id="vtjyb" d="M988.26 5453.98c-.24-.072-.468-.12-.68-.209-2.196-.911-4.217-2.087-5.819-3.889-.91-1.025-1.623-2.182-2.225-3.406-.286-.58-.527-1.184-.772-1.784-.224-.546.106-1.111.453-1.523a3.578 3.578 0 0 1 1.198-.9c.354-.17.704-.073.963.228.559.649 1.072 1.331 1.488 2.084.256.462.186 1.028-.278 1.343-.112.077-.215.166-.32.253a1.05 1.05 0 0 0-.242.255.698.698 0 0 0-.046.613c.572 1.571 1.535 2.793 3.116 3.45.254.106.508.229.8.195.487-.057.645-.593.988-.873.334-.273.761-.277 1.121-.049.36.228.71.473 1.057.72.34.243.68.48.994.758.303.266.407.615.237.976-.312.662-.765 1.212-1.42 1.563-.184.1-.405.132-.613.196-.24-.073.208-.064 0 0z"/><path id="vtjyc" d="M984.877 5441.512c2.873.08 5.233 1.987 5.739 4.828.086.484.117.978.155 1.47.016.206-.101.403-.324.405-.23.003-.334-.19-.349-.396-.03-.409-.05-.82-.106-1.225-.298-2.14-2.004-3.91-4.135-4.29-.32-.058-.648-.073-.973-.107-.205-.022-.474-.034-.52-.29-.038-.213.143-.384.347-.395.055-.003.11 0 .166 0 2.873.08-.055 0 0 0z"/><path id="vtjyd" d="M989.244 5447.172c-.005.036-.008.12-.029.2-.076.288-.513.324-.614.033a.868.868 0 0 1-.034-.277c-.001-.609-.134-1.217-.44-1.746a3.25 3.25 0 0 0-1.363-1.279 3.92 3.92 0 0 0-1.086-.333c-.164-.027-.33-.044-.494-.066-.2-.028-.306-.155-.296-.352.008-.184.143-.316.344-.305.659.038 1.296.18 1.882.49 1.192.632 1.873 1.628 2.072 2.959.009.06.023.12.028.18.011.15.018.3.03.496-.005.036-.012-.197 0 0z"/><path id="vtjye" d="M987.456 5447.103c-.24.004-.369-.13-.393-.35-.018-.153-.031-.309-.068-.458a1.291 1.291 0 0 0-.476-.748 1.242 1.242 0 0 0-.388-.187c-.177-.051-.36-.037-.536-.08-.19-.047-.296-.202-.266-.381a.345.345 0 0 1 .364-.278c1.114.08 1.91.657 2.023 1.968.008.092.018.19-.003.279-.035.151-.147.227-.257.235-.24.004.11-.008 0 0z"/></defs><g><g transform="translate(-973 -5436)"><g><use fill="#fff" xlink:href="#vtjya"/></g><g><use fill="#fff" xlink:href="#vtjyb"/></g><g><use fill="#fff" xlink:href="#vtjyc"/></g><g><use fill="#fff" xlink:href="#vtjyd"/></g><g><use fill="#fff" xlink:href="#vtjye"/></g></g></g></svg>