<svg xmlns="http://www.w3.org/2000/svg" xmlns:xlink="http://www.w3.org/1999/xlink" width="24" height="25" viewBox="0 0 24 25"><defs><path id="t00qa" d="M1172.732 5455.558a9.378 9.378 0 0 1-6.676 2.765 9.34 9.34 0 0 1-4.201-.985l-.848-.422-3.733.884.786-3.814-.418-.818a9.335 9.335 0 0 1-1.026-4.285c0-2.522.982-4.892 2.765-6.675a9.457 9.457 0 0 1 6.676-2.765c2.521 0 4.892.982 6.675 2.765a9.378 9.378 0 0 1 2.765 6.675c0 2.499-.998 4.908-2.765 6.675zm-7.265-18.717c-6.42.305-11.486 5.652-11.467 12.08a12.003 12.003 0 0 0 1.312 5.437l-1.28 6.213a.47.47 0 0 0 .568.552l6.088-1.443a12 12 0 0 0 5.18 1.258c6.563.1 12.034-5.11 12.239-11.67.219-7.031-5.584-12.763-12.64-12.427z"/><path id="t00qb" d="M1171.908 5451.497l-2.336-.67a.87.87 0 0 0-.861.227l-.571.582a.85.85 0 0 1-.925.195c-1.105-.447-3.429-2.513-4.022-3.547a.85.85 0 0 1 .067-.943l.499-.645a.87.87 0 0 0 .107-.884l-.982-2.222a.87.87 0 0 0-1.36-.312c-.652.552-1.425 1.39-1.52 2.317-.165 1.637.537 3.7 3.19 6.176 3.066 2.861 5.52 3.239 7.12 2.852.906-.22 1.63-1.1 2.087-1.82a.87.87 0 0 0-.493-1.306z"/></defs><g><g transform="translate(-1154 -5436)"><g><use fill="#fff" xlink:href="#t00qa"/></g><g><use fill="#fff" xlink:href="#t00qb"/></g></g></g></svg>