<svg xmlns="http://www.w3.org/2000/svg" xmlns:xlink="http://www.w3.org/1999/xlink" width="31" height="22" viewBox="0 0 31 22"><defs><path id="gg13a" d="M855.444 5453.488v-11.444l9.536 5.722zm17.776-14.19c-.828-1.473-1.726-1.744-3.556-1.847-1.827-.124-6.421-.175-10.402-.175-3.988 0-8.585.051-10.41.174-1.825.104-2.725.373-3.56 1.848-.853 1.47-1.292 4.003-1.292 8.462v.016c0 4.44.439 6.992 1.291 8.447.836 1.472 1.734 1.74 3.56 1.863 1.826.107 6.423.17 10.411.17 3.98 0 8.575-.063 10.404-.168 1.83-.124 2.728-.39 3.556-1.863.86-1.455 1.295-4.007 1.295-8.447v-.01-.006c0-4.46-.435-6.994-1.297-8.464z"/></defs><g><g transform="translate(-844 -5437)"><use fill="#fff" xlink:href="#gg13a"/></g></g></svg>